<svg xmlns="http://www.w3.org/2000/svg" xmlns:xlink="http://www.w3.org/1999/xlink" width="903" height="968.272" viewBox="0 0 903 968.272">
  <defs>
    <clipPath id="clip-path">
      <rect id="Rectangle_17871" data-name="Rectangle 17871" width="903" height="968.272" fill="#051923"/>
    </clipPath>
  </defs>
  <g id="Group_35834" data-name="Group 35834" transform="translate(0 0)">
    <g id="Group_35833" data-name="Group 35833" transform="translate(0 0)" clip-path="url(#clip-path)">
      <path id="Path_44294" data-name="Path 44294" d="M39.684,383.7.04,437.549l66.737,49.666c4.356-6.665-20.646-45.16-20.646-45.16L72.946,408.6Z" transform="translate(0.048 462.568)" fill="#051923"/>
      <path id="Path_44295" data-name="Path 44295" d="M0,411.33l4.219-5.785,62.353,50.207s1.987,3.518.082,5.349Z" transform="translate(0 488.897)" fill="#263238"/>
      <path id="Path_44296" data-name="Path 44296" d="M188.437,312.329c1.209,6.751,3.086,64.163,4.3,94.439s-1.806,45.189-5.267,51.969-134.057,103.029-144,126.077L10.486,558.151S58.913,471.037,79.7,455.221s60.478-30.377,60.478-30.377L128.881,259l54.227-2.955Z" transform="translate(12.641 308.669)" fill="#051923"/>
      <path id="Path_44297" data-name="Path 44297" d="M36.459,407.836,35.881,474.7l83.182,1.147c-.377-7.953-43.191-24.5-43.191-24.5L78,408.52Z" transform="translate(43.256 491.659)" fill="#051923"/>
      <path id="Path_44298" data-name="Path 44298" d="M35.877,442.129l.029-7.161,79.948,4.155s3.67,1.685,3.2,4.285Z" transform="translate(43.251 524.367)" fill="#263238"/>
      <path id="Path_44299" data-name="Path 44299" d="M59.085,423.758c-.176.368-2.031-.218-4.329-.095-2.3.079-4.1.825-4.3.474-.232-.3,1.533-1.778,4.241-1.886,2.706-.13,4.594,1.191,4.391,1.506" transform="translate(60.797 509.027)" fill="#263238"/>
      <path id="Path_44300" data-name="Path 44300" d="M167.5,281.01c0,3.915,6.325,102.729-25.975,174.18,0,0-11.191,22.355-13.149,32.143s-43.844,171.82-43.844,171.82l-48.3-1.764s-7.733-81.192.1-128.174,22.128-41.5,22.128-71.841S51.26,364.1,51.26,364.1s-10.551-17.192-14.149-50.507c-2.922-27.071,9.81-56.06,9.81-56.06l12.607-22.307,106.545-5.582Z" transform="translate(39.58 276.844)" fill="#051923"/>
      <path id="Path_44301" data-name="Path 44301" d="M92.494,161.305S63.72,156.23,66.5,193.133c1.665,22.1,8.152,59.9,11.747,84.064,1.242,8.348,3.968,23.31,15.015,32.088l79.179,54.8,24.989-29.876-70.7-67.352-11.111-66.6Z" transform="translate(79.939 194.174)" fill="#045981"/>
      <path id="Path_44302" data-name="Path 44302" d="M109.593,100.882a36.22,36.22,0,0,1,13.454,30.7c-.437,5.633-1.992,12.062,1.674,16.363,3.628,4.259,10.752,4.135,14.23,8.516,4.093,5.159.666,12.834,2.131,19.254a13.04,13.04,0,0,0,13.864,9.687,50.877,50.877,0,0,1-25.222,10.944q-3.527-4.532-7.055-9.06c2.673,3.172,1.963,8.227-.629,11.469s-6.59,5-10.545,6.259a64.546,64.546,0,0,1-56.574-9.195" transform="translate(66.208 121.616)" fill="#263238"/>
      <path id="Path_44303" data-name="Path 44303" d="M32.133,167.718c1.412-4.318,3.78-8.321,4.729-12.766,2.042-9.55-2.611-20.3,2.022-28.9,3.3-6.12,10.324-9.115,16.967-11.162s13.774-3.78,18.727-8.657c3.633-3.575,5.7-8.5,9.321-12.089,5.161-5.115,12.779-6.846,20.031-7.291,7.446-.457,15.145.258,21.844,3.544s12.258,9.457,13.452,16.822c.582,3.591.141,7.355,1.273,10.812,1.246,3.8,4.23,6.76,6.072,10.311a19.13,19.13,0,0,1-4.784,22.933L90.661,217.314c-10.739,4.056-36.76-.849-45.061-8.782s-17.031-29.9-13.467-40.813" transform="translate(37.75 104.559)" fill="#263238"/>
      <path id="Path_44304" data-name="Path 44304" d="M122.735,128.729c-2.109-14.993-13.509-32.71-28.4-29.969L48.373,114.21c-4.524.834-1.286,8.209-.843,12.788l9.993,103.655c-.075.024-6.209,4.433-8.425,3.582a.624.624,0,0,0-.743.933c5.52,8.015,31.579,43.054,58.433,32.357,6-2.389-.629-21.292.075-28.295l-.8-17.891c-.6-9.133-.882-12.876-.871-12.792,0,0,19-4.673,21.058-30.092,1.023-12.642-1.176-33.07-3.518-49.726" transform="translate(55.448 118.718)" fill="#edc0a9"/>
      <path id="Path_44305" data-name="Path 44305" d="M91.6,151.876a64.057,64.057,0,0,1-34.32-6.387s9.808,16.976,34.761,12.7Z" transform="translate(69.047 175.391)" fill="#e2b09a"/>
      <path id="Path_44306" data-name="Path 44306" d="M43.647,118.452c2.318-3.569,6.486-5.406,10.456-6.939a231.526,231.526,0,0,1,53.235-13.557c2.267,3.736.172,8.82-3.249,11.539s-7.816,3.8-11.908,5.326-8.288,3.888-9.976,7.92c-1.793,4.288-.28,9.365-1.855,13.736-2.711,7.523-13.207,9.949-15.875,17.488-2.018,5.7,1.284,11.769,2.111,17.761a21.61,21.61,0,0,1-21.222,24.6q-1.869-32.382-3.738-64.759c-.26-4.5-.432-9.34,2.02-13.116" transform="translate(50.011 118.089)" fill="#263238"/>
      <path id="Path_44307" data-name="Path 44307" d="M25.354,163.87c3.41-3.055,7.684-5.7,9.043-10.068,1.978-6.37-3.136-13.851.159-19.649,3-5.289,11.853-5.022,14.643-10.426,2.181-4.219-.322-7.953.505-11.658s6.089-6.956,9.861-6.513l29.479,42.723c2.737,14.334,5.492,21.963,2.415,30.346-1.689,4.6-3.888,9.082-4.55,13.937s.578,10.353,4.548,13.224c-17.627,1.383-34.144-7.843-49.408-16.762l-16.156-9.44a11.822,11.822,0,0,1-4.44-3.7c-2.367-3.919.492-8.961,3.9-12.016" transform="translate(24.815 127.202)" fill="#263238"/>
      <path id="Path_44308" data-name="Path 44308" d="M168,279.326V254.918c2.73-13.683,1.436-29.918-4.927-42.43-3.712-7.294-12.21-18.921-15.311-23.275l-24.3-31.5c-13.361,9.729-34.283,2.7-52.234-3.84,0,0-17.735,9.81-25.983,19.043-8.666,9.693,20.964,131.11,20.964,131.11-13.427,26.861-30.756,50.663-33.385,75.2l140.272,5.4-5.962-64.315Z" transform="translate(39.58 185.494)" fill="#006494"/>
      <path id="Path_44309" data-name="Path 44309" d="M93.3,267.764a12.738,12.738,0,0,1-.108-2.748c.024-2,.051-4.5.086-7.475.106-6.557.247-15.152.4-24.656.183-9.634.434-18.354.739-24.664.15-3.154.307-5.706.45-7.468a12.6,12.6,0,0,1,.34-2.728,12.738,12.738,0,0,1,.108,2.748c-.022,2-.051,4.5-.084,7.475-.108,6.557-.249,15.152-.406,24.66-.183,9.629-.434,18.35-.739,24.658-.15,3.156-.307,5.708-.45,7.468a12.608,12.608,0,0,1-.34,2.73" transform="translate(112.349 238.725)" fill="#045981"/>
      <path id="Path_44310" data-name="Path 44310" d="M130.914,239.708s13.661.741,22.139,6.045,22.069,13.535,27.684,23.762c2.578,4.693-4.771,5.686-8.4,2.96s-9.182-7.858-11.939-8.489l-2.757-.631s5.536,12.329,8.394,16.663,5.329,11.736-3.224,12.075c0,0-5.77,7.5-11.595,1.943,0,0-4.546,6.8-11.866-2.633,0,0-4.263,5.4-6.043,3.339S125.7,289.4,124,282.659s-8.855-23.136-8.855-23.136Z" transform="translate(138.81 288.975)" fill="#edc0a9"/>
      <path id="Path_44311" data-name="Path 44311" d="M275.636,208.51c1.531.02,64.148-6.575,64.148-6.575s5.3-25.463,5.02-32.079-4.746-50.4-4.746-50.4l23.454-11.094S394.854,214.059,388,222.846s-19.693,16.639-20.8,16.685-60.665,26.44-102.121,12.724,10.551-43.744,10.551-43.744" transform="translate(300.235 130.639)" fill="#edc0a9"/>
      <path id="Path_44312" data-name="Path 44312" d="M236.224,229.357c9.226,9.144,25.106,16.751,51.6,10.137,52.414-13.088,91.686-24.162,107.312-32.644s9.528-45.831,10.842-47.527c3.961-5.11-.384-16.1-6.021-17.812-16.025-4.854-43.939-2.942-45.335-1.478-8.235,8.635-.723,19.144-.723,19.144l-69.108,9.051a114.994,114.994,0,0,0-25.388,1.625" transform="translate(284.776 166.845)" fill="#006494"/>
      <path id="Path_44313" data-name="Path 44313" d="M259.4,170.148s.558-.146,1.659-.357,2.739-.485,4.894-.756a112.741,112.741,0,0,1,18.853-.792l-.055,0,69.08-9.259-.333.768a18.387,18.387,0,0,1-3.18-11.35,12.987,12.987,0,0,1,1.976-5.871,17.329,17.329,0,0,1,1.906-2.514,3.32,3.32,0,0,1,.9-.485l.79-.2c.527-.139,1.037-.185,1.559-.282a136.064,136.064,0,0,1,25.77-.543,89.988,89.988,0,0,1,13.405,1.846c1.118.258,2.228.58,3.348.869a8.455,8.455,0,0,1,3.165,1.842,15.618,15.618,0,0,1,3.893,6,15,15,0,0,1,.915,7.186,8.475,8.475,0,0,1-1.39,3.513c-.205.216-.176.82-.205,1.394l.02,1.758c.165,4.74.384,9.57.26,14.435-.207,6.93-.814,13.908-3.286,20.342a19.972,19.972,0,0,1-5.748,8.441,20.261,20.261,0,0,1-4.354,2.6c-1.469.779-3,1.378-4.493,2.073-6.026,2.587-12.1,4.691-18.07,6.672s-11.855,3.771-17.616,5.459c-23.052,6.711-44.016,11.969-61.623,16.358a120.115,120.115,0,0,1-12.706,2.64,68.894,68.894,0,0,1-11.57.615,48.518,48.518,0,0,1-18.052-3.919,41.759,41.759,0,0,1-9.925-6.178,25.524,25.524,0,0,1-2.962-2.8c.055-.06,1.017.973,3.108,2.625a43.531,43.531,0,0,0,9.956,5.946,48.618,48.618,0,0,0,17.9,3.688,68.8,68.8,0,0,0,11.449-.7,121.026,121.026,0,0,0,12.609-2.7c17.576-4.488,38.515-9.828,61.521-16.588,5.75-1.7,11.621-3.5,17.571-5.483s12-4.093,17.971-6.663c1.467-.688,2.993-1.288,4.433-2.053a19.238,19.238,0,0,0,4.14-2.464,18.841,18.841,0,0,0,5.4-7.977c2.386-6.2,3-13.094,3.2-19.951.121-4.826-.093-9.605-.258-14.378l-.018-1.806c0-.307.018-.615.044-.942a3.684,3.684,0,0,1,.1-.547,2.712,2.712,0,0,1,.17-.382l.11-.176a7.33,7.33,0,0,0,1.187-3.017,13.87,13.87,0,0,0-.851-6.614,14.508,14.508,0,0,0-3.586-5.558,7.266,7.266,0,0,0-2.728-1.6c-1.1-.282-2.179-.6-3.275-.851a88.967,88.967,0,0,0-13.235-1.842,135.932,135.932,0,0,0-25.531.479c-.494.09-1.017.141-1.484.265l-.708.172a3.755,3.755,0,0,0-.459.205,16.159,16.159,0,0,0-1.782,2.342,11.961,11.961,0,0,0-1.846,5.419,17.45,17.45,0,0,0,2.964,10.692l.435.671-.768.1L284.824,168.8l-.024,0-.031,0a120.1,120.1,0,0,0-18.782.525c-2.153.225-3.8.452-4.9.613s-1.683.21-1.683.21" transform="translate(284.777 166.551)" fill="#094d6e"/>
      <path id="Path_44314" data-name="Path 44314" d="M717.423,40.047l2.415,4.336A26.408,26.408,0,0,1,709.607,80.3L177.267,376.616l-28.1-50.482L681.507,29.818a26.407,26.407,0,0,1,35.917,10.229" transform="translate(179.824 31.922)" fill="#00b4cc"/>
      <path id="Path_44315" data-name="Path 44315" d="M373.617,2.534l65.189,117.111L400.268,141.1,335.079,23.985a4.933,4.933,0,0,1,1.912-6.709L366.907.622a4.936,4.936,0,0,1,6.709,1.912" transform="translate(403.198 0)" fill="#00b4cc"/>
      <path id="Path_44316" data-name="Path 44316" d="M345.185,31.538l47.5,85.33a7.153,7.153,0,0,1-2.77,9.729l-26.036,14.493a7.155,7.155,0,0,1-9.731-2.772l-47.5-85.328a7.155,7.155,0,0,1,2.772-9.731l26.034-14.493a7.155,7.155,0,0,1,9.731,2.772" transform="translate(368.585 33.589)" fill="#00b4cc"/>
      <rect id="Rectangle_17870" data-name="Rectangle 17870" width="68.496" height="60.468" transform="matrix(0.874, -0.486, 0.486, 0.874, 717.186, 81.583)" fill="#00b4cc"/>
      <path id="Path_44317" data-name="Path 44317" d="M642.356,29.966c.154.278-104.315,58.722-233.312,130.525C280,232.321,175.305,290.3,175.151,290.026s104.3-58.711,233.334-130.539C537.48,87.684,642.2,29.69,642.356,29.966" transform="translate(211.15 36.123)" fill="#00b4cc"/>
      <path id="Path_44318" data-name="Path 44318" d="M75.294,342.067c39.241,70.5,122.019,99.277,184.89,64.282s82.028-120.517,42.787-191.014-122.021-99.28-184.892-64.282S36.051,271.567,75.294,342.067M268.9,234.3c27.5,49.4,14.074,109.326-29.982,133.849S136.859,372.5,109.363,323.1s-14.076-109.326,29.98-133.847S241.406,184.9,268.9,234.3" transform="translate(66.209 164.142)" fill="#00b4cc"/>
      <path id="Path_44319" data-name="Path 44319" d="M218.242,136.5,247.3,188.7a14.374,14.374,0,0,1-5.569,19.55l-2.362,1.315a14.371,14.371,0,0,1-19.55-5.569L190.761,151.8a14.377,14.377,0,0,1,5.569-19.552l2.362-1.315a14.375,14.375,0,0,1,19.55,5.569" transform="translate(227.779 155.657)" fill="#00b4cc"/>
      <path id="Path_44320" data-name="Path 44320" d="M243.538,122.425l29.053,52.194a14.374,14.374,0,0,1-5.569,19.55l-2.362,1.314a14.373,14.373,0,0,1-19.55-5.569L216.057,137.72a14.375,14.375,0,0,1,5.569-19.55l2.362-1.315a14.375,14.375,0,0,1,19.55,5.569" transform="translate(258.274 138.684)" fill="#00b4cc"/>
      <path id="Path_44321" data-name="Path 44321" d="M201.958,132.061c.278-.152,7.022,11.685,15.062,26.433s14.334,26.835,14.056,26.987-7.022-11.683-15.064-26.438-14.332-26.83-14.054-26.982" transform="translate(243.456 159.202)" fill="#00b4cc"/>
      <path id="Path_44322" data-name="Path 44322" d="M190.351,140.363c.278-.154,6.859,11.142,14.7,25.227s13.974,25.635,13.7,25.789-6.859-11.138-14.7-25.229-13.974-25.633-13.7-25.787" transform="translate(229.463 169.21)" fill="#00b4cc"/>
      <path id="Path_44323" data-name="Path 44323" d="M227.41,118.175c.278-.154,7.135,11.636,15.313,26.33s14.59,26.738,14.312,26.892-7.133-11.634-15.315-26.332-14.587-26.735-14.309-26.89" transform="translate(274.139 142.462)" fill="#00b4cc"/>
      <path id="Path_44324" data-name="Path 44324" d="M215.195,125.549c.278-.15,6.989,11.561,14.991,26.16s14.261,26.561,13.983,26.713-6.989-11.557-14.991-26.16-14.261-26.561-13.983-26.713" transform="translate(259.414 151.351)" fill="#00b4cc"/>
      <path id="Path_44325" data-name="Path 44325" d="M317.626,118.191a10.424,10.424,0,0,0,4.453-20.258,10.844,10.844,0,0,0-9.42-18.3,12.981,12.981,0,0,0-19.55-10.675,14.591,14.591,0,0,0-17.966-.393,10.378,10.378,0,0,0-9.195,17.589" transform="translate(316.958 79.158)" fill="#263238"/>
      <path id="Path_44326" data-name="Path 44326" d="M286.842,71.64l2.289.007a44.226,44.226,0,0,1,43.965,40.8c1.659,21.374,3.218,45.008,3.041,56.473-.366,23.736-24.117,27.355-24.117,27.355l1.921,28.524-57.6-1.961L251.556,119.4C249.5,94.75,262.142,73.007,286.842,71.64" transform="translate(302.999 86.364)" fill="#edc0a9"/>
      <path id="Path_44327" data-name="Path 44327" d="M295.927,133.164s-15.161.865-31.074-9.2c0,0,7.635,17.968,31.327,15.9Z" transform="translate(319.289 149.446)" fill="#e2b09a"/>
      <path id="Path_44328" data-name="Path 44328" d="M333.941,103.136s-6.215-14.885-13.372-18.374c-8.665-4.226-12.43,5.287-20.692,2.951s-16.535-6.392-25-.024c-9.272,6.969-4.954,11.89-5.556,22.421-2.446,42.692-10.28,54.744-12.439,34.625-.236-2.206-6.345-3.977-7.223-13.288-1.138-12.075-1.559-26.735,1.162-35.293,2.294-7.214,6.425-12.19,13.824-17.669,11.681-8.648,27.688-8.785,38.557-7.66s31.79,13.7,30.743,32.311" transform="translate(299.905 84.786)" fill="#263238"/>
      <path id="Path_44329" data-name="Path 44329" d="M261.907,107.2a6.444,6.444,0,0,0-6.939-6.231c-4.426.408-9.36,2.907-9.1,12.055.47,16.228,16.667,12.411,16.683,11.943.009-.315-.39-10.979-.646-17.768" transform="translate(296.393 121.684)" fill="#ffc09d"/>
      <path id="Path_44330" data-name="Path 44330" d="M261.855,115.665c2.1,1.445,4.325,2.936,6.864,3.194s5.448-1.191,5.882-3.705c.2-1.129-.075-2.439.67-3.311.889-1.039,2.523-.708,3.882-.56,4.718.516,10.245-4.678,11.46-9.265a4.236,4.236,0,0,0,5.657,1.191,15.234,15.234,0,0,0,3.922-3.465c1.429-1.628,3.434-3.081,5.578-2.77,1.2.174,2.32.891,3.527.787,2.133-.183,3.18-2.673,3.509-4.788s.589-4.581,2.4-5.726c1.676-1.061,3.842-.439,5.8-.143s4.495-.157,5-2.073a3.861,3.861,0,0,0-.717-2.947,10.512,10.512,0,0,0-12.4-4.016,14.245,14.245,0,0,0-26.164-2.841,14.458,14.458,0,0,0-23.127,5.2,10.479,10.479,0,0,0-11.861,15.207c-2.92,1.659-5.428,4.55-5.5,7.907s3.191,6.716,6.436,5.842A5.8,5.8,0,0,0,262.7,115.2" transform="translate(296.855 81.774)" fill="#263238"/>
      <path id="Path_44331" data-name="Path 44331" d="M359.19,393.223l15.67,53.361s59.5,1.994,63.356,11.575l-102.374,34.1-27.825-82.14Z" transform="translate(371.325 474.043)" fill="#051923"/>
      <path id="Path_44332" data-name="Path 44332" d="M418.59,420.921s5.218.465,5.772,3.846l-102.372,34.1-2.481-8.39Z" transform="translate(385.179 507.433)" fill="#263238"/>
      <path id="Path_44333" data-name="Path 44333" d="M267.45,404.339l-22.291,50.952s44.3,39.768,41.1,49.587L185.916,465.2l31.475-80.813Z" transform="translate(224.128 463.394)" fill="#051923"/>
      <path id="Path_44334" data-name="Path 44334" d="M284.31,458.433s3.7,3.71,1.95,6.656L185.915,425.417l3.494-8.022Z" transform="translate(224.127 503.182)" fill="#263238"/>
      <path id="Path_44335" data-name="Path 44335" d="M221.146,413.46c-.382.366-2.362-1.2-5.207-2.106-2.825-.964-5.348-.887-5.437-1.407-.143-.468,2.678-1.449,6.012-.333,3.341,1.09,5.024,3.558,4.632,3.847" transform="translate(253.76 493.183)" fill="#fff"/>
      <path id="Path_44336" data-name="Path 44336" d="M299.667,266.536,264.5,409.141S201.088,515.9,190.356,569.307l58.01,22.814s42.185-102.884,54.556-121.77a151.081,151.081,0,0,1,19.1-23.524,36.9,36.9,0,0,0,9.625-16.683L358.272,328.4Z" transform="translate(229.48 321.317)" fill="#051923"/>
      <path id="Path_44337" data-name="Path 44337" d="M233.127,281.473s4.89,38.18,41.645,55.11l77.461,126.152s6.083,41.016,17.77,75.592c11.6,34.316,34.971,101.154,34.971,101.154l63.716-23.813L428.081,476.844,421.438,428.7,358.218,267.8l-54.3-32.558Z" transform="translate(281.042 283.59)" fill="#051923"/>
      <path id="Path_44338" data-name="Path 44338" d="M233.127,281.681s.379-.278,1.162-.805q1.211-.8,3.513-2.34c3.138-2.071,7.755-5.117,13.758-9.08,12.1-7.949,29.783-19.563,52.183-34.276l.168-.11.174.1,54.342,32.483.119.071.051.13c17.691,44.927,39.283,99.761,63.341,160.852l.022.06.009.064c2.106,15.214,4.36,31.506,6.663,48.142l-.018-.079c10.979,37.512,22.715,77.615,34.814,118.957q2.921,9.985,5.809,19.863l.15.514-.5.185-63.718,23.8-.545.2-.187-.547c-11.052-32-21.691-62.811-31.786-92.046-2.534-7.3-5.029-14.528-7.1-21.769-2.091-7.232-3.95-14.413-5.635-21.513q-5.015-21.315-8.156-41.535l.064.179c-31.687-51.748-58.063-94.822-77.3-126.247l.128.115a72.282,72.282,0,0,1-24.338-18.493,76.5,76.5,0,0,1-11.895-19.089,77.543,77.543,0,0,1-4.424-13.145c-.375-1.52-.576-2.686-.71-3.467s-.154-1.184-.154-1.184.079.39.234,1.169.386,1.937.785,3.445a81.064,81.064,0,0,0,4.554,13.057,76.833,76.833,0,0,0,11.958,18.917A71.956,71.956,0,0,0,274.9,336.521l.082.038.046.077,77.615,126.057.051.079.015.1c2.12,13.41,4.845,27.267,8.2,41.442,1.689,7.084,3.553,14.246,5.646,21.455,2.073,7.214,4.565,14.411,7.111,21.718,10.115,29.226,20.772,60.024,31.846,92.015l-.732-.342c20.728-7.748,42.015-15.708,63.711-23.82l-.348.7q-2.888-9.875-5.812-19.863c-12.086-41.345-23.811-81.452-34.777-118.966l-.013-.04,0-.042C425.24,460.487,423,444.2,420.9,428.979l.033.121-63.1-160.944.17.2c-20.229-12.17-38.447-23.127-54.252-32.635l.34,0c-22.428,14.561-40.13,26.056-52.249,33.925l-13.886,8.972-3.591,2.3c-.809.514-1.242.765-1.242.765" transform="translate(281.042 283.383)" fill="#051923"/>
      <path id="Path_44339" data-name="Path 44339" d="M272.874,140.6s-18.562,14.3-27.589,30.262c-10.809,19.111-11.972,47.47-12.314,91.481-.315,40.727,5.774,52.033,3.421,67.374-4.6,29.98-8.017,130.581-8.017,130.581s59.479-22.874,71.1-32.977l11.623-10.1,74.521,24.627-15.042-91.565L360.264,236.136,347.05,175.594l-2.307-23.751L280.9,126.016Z" transform="translate(275.313 151.916)" fill="#006494"/>
      <path id="Path_44340" data-name="Path 44340" d="M317.908,143.094c.779.143-1.837,5.368-6.431,13.044l-.187.313-.351-.135c-6.473-2.508-15.024-5.664-24.376-9.076-10.547-3.842-20.073-7.413-26.888-10.194-3.41-1.389-6.149-2.561-8.026-3.41a17.112,17.112,0,0,1-2.865-1.429,17.133,17.133,0,0,1,3.035,1.017c2.126.8,4.865,1.828,8.149,3.066l26.989,9.872c9.354,3.412,17.885,6.67,24.307,9.338l-.536.176c4.771-7.569,7.613-12.536,7.179-12.583" transform="translate(299.917 159.37)" fill="#094d6e"/>
      <path id="Path_44341" data-name="Path 44341" d="M331.746,158.269s-4.709-7.338-9.177-14.113-11.193-10.084-12.272-13.632-7.018-19.234-7.969-23.145a49.67,49.67,0,0,1-1.138-11.508s4.868-2.089,7.212,4.892c1.409,4.191,5.9,18.416,6.868,19.115s2.311-.324,2.311-.324-4.98-13.685-5.2-16.266.688-19.684.688-19.684,3.549-1.076,5.865,3.277,2.4,15.461,2.4,15.461l3.5,12.316-1.215-12.181L325.387,80.1a8.422,8.422,0,0,1,7.049,6.559c1.482,6.05-.476,14.466.521,16.268s2.062,12.6,2.062,12.6,1.211-26.259,4.007-27.016,5.11,2.042,4.709,7.34-.5,16.484.953,21.431S361.075,141.448,359.842,150a139.757,139.757,0,0,0-1.37,15.395H332.8Z" transform="translate(363.083 96.564)" fill="#ffc09d"/>
      <path id="Path_44342" data-name="Path 44342" d="M293.773,180.626c1.431.54,62.551,15.67,62.551,15.67s13.654-22.137,15.646-28.454,12.7-49,12.7-49L410.5,116.4s-6.531,110.047-15.966,115.976-24.184,8.935-25.236,8.6-66.045,4.195-100.35-22.823,24.821-37.534,24.821-37.534" transform="translate(311.328 140.327)" fill="#edc0a9"/>
      <path id="Path_44343" data-name="Path 44343" d="M255.071,172.141a46.736,46.736,0,0,0,24.991,14.7c16.219,3.573,50.721,9.885,50.721,9.885L329.1,179.79l-75.09-8.037" transform="translate(306.215 207.054)" fill="#094d6e"/>
      <path id="Path_44344" data-name="Path 44344" d="M242.154,187.634c5.56,11.74,17.9,24.3,45.059,27.1,53.738,5.549,94.432,8.513,112.012,5.862s24.57-39.845,26.383-40.992c5.465-3.456,5.126-15.271.408-18.8-13.414-10.024-40.31-17.732-42.121-16.83-10.684,5.313-7.2,17.75-7.2,17.75L308.635,146.7a115.12,115.12,0,0,0-24.422-7.117" transform="translate(291.925 168.273)" fill="#006494"/>
      <path id="Path_44345" data-name="Path 44345" d="M284.211,139.584s.576.053,1.681.229,2.741.476,4.861.955a112.822,112.822,0,0,1,17.995,5.679l-.053-.018c16.268,3.54,39.766,8.657,68.1,14.823l-.576.609a18.4,18.4,0,0,1,.876-11.756,12.982,12.982,0,0,1,3.86-4.846,17.089,17.089,0,0,1,2.647-1.716,3.274,3.274,0,0,1,1.01-.148l.809.084c.545.049,1.039.179,1.564.265a136.29,136.29,0,0,1,24.413,8.266,89.8,89.8,0,0,1,11.974,6.3c.964.622,1.9,1.3,2.854,1.956a8.44,8.44,0,0,1,2.347,2.81,15.584,15.584,0,0,1,1.617,6.969,14.972,14.972,0,0,1-1.588,7.067,8.46,8.46,0,0,1-2.5,2.83c-.267.135-.445.71-.668,1.242l-.58,1.659c-1.458,4.513-2.9,9.129-4.671,13.661-2.554,6.445-5.5,12.8-10.02,18.006a19.946,19.946,0,0,1-8.275,5.977,20.182,20.182,0,0,1-4.98.957c-1.648.234-3.293.276-4.929.421-6.548.379-12.975.289-19.261.117s-12.433-.492-18.423-.869c-23.959-1.542-45.463-3.738-63.51-5.609a120.682,120.682,0,0,1-12.843-1.844,68.9,68.9,0,0,1-11.089-3.363,48.552,48.552,0,0,1-15.639-9.834,41.8,41.8,0,0,1-7.225-9.188,25.662,25.662,0,0,1-1.831-3.646c.071-.038.624,1.262,2.029,3.527a43.444,43.444,0,0,0,7.333,8.983,48.608,48.608,0,0,0,15.571,9.561,68.53,68.53,0,0,0,11,3.244,120.248,120.248,0,0,0,12.774,1.753c6.048.592,12.484,1.222,19.491,1.876,13.245,1.235,28.087,2.5,44,3.483,5.984.362,12.119.666,18.387.829s12.677.24,19.166-.143c1.614-.148,3.253-.19,4.868-.421a19.083,19.083,0,0,0,4.731-.906,18.826,18.826,0,0,0,7.794-5.659c4.356-5.02,7.283-11.29,9.806-17.669,1.76-4.495,3.187-9.063,4.656-13.606l.6-1.7c.106-.287.227-.571.364-.869a3.634,3.634,0,0,1,.278-.481,2.5,2.5,0,0,1,.291-.3l.163-.13a7.339,7.339,0,0,0,2.144-2.433,13.9,13.9,0,0,0,1.453-6.509,14.493,14.493,0,0,0-1.48-6.447,7.275,7.275,0,0,0-2.02-2.437c-.933-.637-1.844-1.306-2.788-1.917a89.146,89.146,0,0,0-11.817-6.239,135.7,135.7,0,0,0-24.168-8.244c-.494-.084-1-.216-1.484-.258l-.723-.079a3.415,3.415,0,0,0-.5.038,16.162,16.162,0,0,0-2.472,1.595,11.981,11.981,0,0,0-3.582,4.466,17.444,17.444,0,0,0-.856,11.063l.181.776-.757-.168c-28.3-6.339-51.764-11.594-68.012-15.231l-.024-.007-.029-.011a120.308,120.308,0,0,0-17.836-5.906c-2.1-.52-3.725-.869-4.819-1.092s-1.654-.377-1.654-.377" transform="translate(291.925 168.273)" fill="#094d6e"/>
      <path id="Path_44346" data-name="Path 44346" d="M325.946,171.42c-.055.124-1.8-.479-4.4-1.912a44.589,44.589,0,0,1-9.281-6.93,45.879,45.879,0,0,1-7.23-9.049c-1.526-2.547-2.206-4.257-2.084-4.318.324-.2,3.681,6.354,10.115,12.543,6.367,6.257,13.061,9.338,12.878,9.667" transform="translate(365.204 179.872)" fill="#094d6e"/>
      <path id="Path_44347" data-name="Path 44347" d="M104.436,241.634s13.661.741,22.139,6.045,22.069,13.535,27.684,23.762c2.578,4.693-4.771,5.686-8.4,2.96s-9.182-7.858-11.939-8.489l-2.757-.631s5.536,12.329,8.394,16.663,5.329,11.736-3.224,12.075c0,0-5.77,7.5-11.594,1.943,0,0-4.546,6.8-11.866-2.631,0,0-4.263,5.395-6.043,3.337s-7.607-5.344-9.31-12.084-8.855-23.136-8.855-23.136Z" transform="translate(106.89 291.297)" fill="#edc0a9"/>
      <path id="Path_44348" data-name="Path 44348" d="M55.673,160.083A32.873,32.873,0,0,0,38.487,172.99c-5.256,8.077-6.857,22.161-5.364,32.476,3.18,21.93,13.246,58.978,18.9,82.749,1.952,8.211,5.946,22.885,17.7,30.685l83.557,50.107,22.342-33.16L99.439,273.765,84.386,188.671Z" transform="translate(39.289 192.985)" fill="#006494"/>
      <path id="Path_44349" data-name="Path 44349" d="M36.506,219.158a5.7,5.7,0,0,1,.271.871c.168.631.4,1.487.688,2.585.6,2.333,1.453,5.686,2.552,9.985,2.188,8.747,5.337,21.336,9.241,36.94a43.2,43.2,0,0,0,13.754,21.8c3.518,3.15,7.88,5.452,12.214,8.123q6.531,3.934,13.441,8.1l60.193,36.354-.77.17c2.554-3.793,5.284-7.845,8.037-11.934,4.863-7.212,9.649-14.314,14.305-21.224l.113.759c-28.69-23.619-54.713-45.044-75.515-62.167l-.115-.095-.033-.143c-4.991-20.986-8.61-38.162-10.882-50.112-1.147-5.97-1.934-10.639-2.442-13.811-.227-1.548-.4-2.75-.532-3.619-.112-.816-.137-1.24-.137-1.24s.113.41.267,1.22c.157.862.375,2.058.655,3.6.591,3.156,1.456,7.808,2.673,13.76,2.417,11.91,6.164,29.053,11.253,50l-.148-.236c20.847,17.073,46.925,38.427,75.676,61.971l.4.329-.289.43c-4.656,6.91-9.44,14.014-14.3,21.228l-8.041,11.932-.3.454-.468-.282c-21.444-13-41.742-25.3-60.136-36.451q-6.891-4.185-13.412-8.147c-4.294-2.664-8.714-5.02-12.311-8.262a43.944,43.944,0,0,1-13.908-22.3c-3.758-15.644-6.791-28.266-8.9-37.035l-2.351-10.035c-.247-1.109-.441-1.974-.584-2.611a5.875,5.875,0,0,1-.161-.9" transform="translate(44.005 217.592)" fill="#045981"/>
      <path id="Path_44350" data-name="Path 44350" d="M37.127,166.6a5.148,5.148,0,0,1,1.7-.715,29.042,29.042,0,0,1,4.885-1.1,28.858,28.858,0,0,1,16.3,2.205,32.419,32.419,0,0,1,12.179,11.094,19.992,19.992,0,0,1,2.223,4.506,4.7,4.7,0,0,1,.388,1.8c-.2.066-.854-2.483-3.286-5.853A34.584,34.584,0,0,0,59.5,168.023a30.307,30.307,0,0,0-15.7-2.43c-4.133.4-6.619,1.206-6.674,1.012" transform="translate(44.757 198.27)" fill="#045981"/>
    </g>
  </g>
</svg>
